<?xml version="1.0" encoding="utf-8"?>
<!-- Generator: Adobe Illustrator 22.1.0, SVG Export Plug-In . SVG Version: 6.00 Build 0)  -->
<svg version="1.1" id="Layer_1" xmlns="http://www.w3.org/2000/svg" xmlns:xlink="http://www.w3.org/1999/xlink" x="0px" y="0px"
	 viewBox="0 0 57.1 60.1" style="enable-background:new 0 0 57.1 60.1;" xml:space="preserve">
<style type="text/css">
	.st0{fill:#54585A;}
</style>
<path class="st0" d="M28.9,37.6H5.5V18.4H0v-6.1L28.6,0l0,0l28.5,12.3v6.1h-5.5v19.1H28.3L28.9,37.6L28.9,37.6z M46.6,33.2V13.4
	L29,5.6h-0.4l-17.7,7.8v19.8H46.6z"/>
<path class="st0" d="M2.6,47.2v-7.1h3.2v1.2H3.4v1.6h2.2v1.2H3.4V46h2.4v1.2C5.8,47.2,2.6,47.2,2.6,47.2z"/>
<path class="st0" d="M8.6,44.8l-0.2,0.8c0.2,0.1,0.4,0.3,0.5,0.4c-0.1,0.1-0.2,0.1-0.3,0.1c-0.3,0-0.6-0.2-0.8-0.6
	c-0.2-0.4-0.3-1-0.3-1.9c0-0.8,0.1-1.4,0.3-1.9c0.2-0.4,0.5-0.6,0.9-0.6c0.4,0,0.6,0.2,0.9,0.6c0.2,0.4,0.3,1,0.3,1.9
	c0,0.8-0.1,1.4-0.4,1.8C9.2,45.2,8.9,44.9,8.6,44.8z M10.6,45.1c0.1-0.4,0.1-0.9,0.1-1.5c0-1.2-0.2-2.1-0.6-2.7
	C9.7,40.3,9.2,40,8.6,40s-1.2,0.3-1.5,0.9c-0.4,0.6-0.6,1.5-0.6,2.7s0.2,2.1,0.6,2.7c0.4,0.6,0.9,0.9,1.5,0.9c0.4,0,0.7-0.1,1-0.3
	c0.4,0.4,0.6,0.6,0.6,0.6c0.1,0.1,0.3,0.2,0.4,0.3l0.3-1c-0.3-0.2-0.5-0.4-0.7-0.6C10.4,45.9,10.5,45.5,10.6,45.1z"/>
<path class="st0" d="M11.4,40.1h0.9V44c0,0.6,0,1,0,1.2c0,0.3,0.1,0.6,0.3,0.7c0.1,0.2,0.3,0.3,0.6,0.3c0.2,0,0.4-0.1,0.5-0.2
	c0.1-0.1,0.2-0.3,0.3-0.5c0-0.2,0.1-0.7,0.1-1.4v-4H15v3.7c0,1,0,1.6-0.1,2.1c-0.1,0.4-0.2,0.8-0.5,1c-0.3,0.3-0.6,0.4-1.1,0.4
	s-0.8-0.1-1.1-0.3c-0.3-0.2-0.4-0.5-0.6-0.9c-0.1-0.4-0.2-1.1-0.2-2.2C11.4,43.9,11.4,40.1,11.4,40.1z"/>
<path class="st0" d="M16.9,44.4l0.6-2.7l0.6,2.7H16.9z M18,40.1h-1l-1.7,7.1h1l0.4-1.6h1.7l0.4,1.6h1L18,40.1z"/>
<path class="st0" d="M20.2,47.2v-7.1h0.9V46h2.2v1.2C23.3,47.2,20.2,47.2,20.2,47.2z"/>
<path class="st0" d="M25.7,47.2v-7.1h0.9v2.8h1.8v-2.8h0.9v7.1h-0.9v-3.1h-1.8v3.1H25.7z"/>
<path class="st0" d="M31.2,41.8c0.2-0.4,0.5-0.6,0.9-0.6c0.4,0,0.7,0.2,0.9,0.6c0.2,0.4,0.3,1,0.3,1.8s-0.1,1.5-0.3,1.9
	s-0.5,0.6-0.9,0.6c-0.3,0-0.6-0.2-0.9-0.6c-0.2-0.4-0.4-1-0.4-1.8C30.8,42.8,30.9,42.2,31.2,41.8z M30.5,46.4
	c0.4,0.6,0.9,0.9,1.5,0.9c0.6,0,1.1-0.3,1.5-0.9c0.4-0.7,0.6-1.6,0.6-2.8s-0.2-2.1-0.6-2.7c-0.4-0.6-0.9-1-1.5-1
	c-0.4,0-0.8,0.1-1.1,0.4c-0.3,0.3-0.6,0.7-0.7,1.2c-0.2,0.5-0.3,1.2-0.3,2.1C29.9,44.8,30.1,45.8,30.5,46.4z"/>
<path class="st0" d="M34.8,40.1h0.9V44c0,0.6,0,1,0,1.2c0,0.3,0.1,0.6,0.3,0.7c0.1,0.2,0.3,0.3,0.6,0.3c0.2,0,0.4-0.1,0.5-0.2
	c0.1-0.1,0.2-0.3,0.3-0.5c0-0.2,0.1-0.7,0.1-1.4v-4h0.9v3.7c0,1,0,1.6-0.1,2.1c-0.1,0.4-0.2,0.8-0.5,1c-0.3,0.3-0.6,0.4-1.1,0.4
	s-0.8-0.1-1.1-0.3s-0.4-0.5-0.6-0.9c-0.1-0.4-0.2-1.1-0.2-2.2C34.8,43.9,34.8,40.1,34.8,40.1z"/>
<path class="st0" d="M39.1,44.9l0.9-0.1c0.1,0.9,0.4,1.4,1,1.4c0.3,0,0.5-0.1,0.6-0.3c0.2-0.2,0.2-0.4,0.2-0.7c0-0.2,0-0.3-0.1-0.4
	c-0.1-0.1-0.1-0.2-0.3-0.3c-0.1-0.1-0.4-0.2-0.8-0.4c-0.4-0.2-0.7-0.3-0.8-0.5c-0.2-0.2-0.3-0.4-0.4-0.7c-0.1-0.3-0.2-0.6-0.2-0.9
	c0-0.4,0.1-0.7,0.2-1c0.1-0.3,0.3-0.5,0.6-0.7c0.2-0.2,0.5-0.2,0.9-0.2c0.5,0,0.9,0.2,1.2,0.6c0.3,0.4,0.4,0.9,0.5,1.6l-1-0.1
	c0-0.4-0.1-0.6-0.2-0.8c-0.1-0.2-0.3-0.2-0.5-0.2s-0.4,0.1-0.5,0.2c-0.1,0.1-0.2,0.3-0.2,0.5s0.1,0.4,0.2,0.5
	c0.1,0.1,0.4,0.3,0.8,0.4c0.4,0.2,0.8,0.4,1,0.5c0.2,0.2,0.4,0.4,0.5,0.7c-0.1,0.3-0.1,0.7-0.1,1.1c0,0.6-0.1,1.1-0.4,1.6
	c-0.3,0.4-0.7,0.6-1.3,0.6C39.8,47.3,39.2,46.5,39.1,44.9z"/>
<path class="st0" d="M43.3,47.2v-7.1h0.9v7.1H43.3z"/>
<path class="st0" d="M45.1,47.2v-7.1H46l1.8,4.8v-4.8h0.8v7.1h-0.9l-1.8-4.7v4.7H45.1z"/>
<path class="st0" d="M51.5,44.6v-1.2h1.9v2.8c-0.2,0.3-0.5,0.6-0.8,0.8c-0.4,0.2-0.7,0.3-1.1,0.3c-0.4,0-0.8-0.1-1.1-0.4
	c-0.3-0.3-0.6-0.7-0.8-1.3s-0.3-1.2-0.3-2s0.1-1.5,0.3-2c0.2-0.6,0.4-1,0.8-1.2c0.3-0.3,0.7-0.4,1.1-0.4c0.5,0,0.9,0.2,1.3,0.5
	c0.3,0.4,0.5,0.9,0.6,1.6l-0.9,0.3c-0.1-0.4-0.2-0.6-0.4-0.8s-0.4-0.3-0.6-0.3c-0.4,0-0.7,0.2-0.9,0.6s-0.4,1-0.4,1.8
	c0,0.9,0.1,1.5,0.4,2c0.2,0.4,0.5,0.6,0.9,0.6c0.2,0,0.4-0.1,0.5-0.2c0.2-0.1,0.4-0.3,0.5-0.4v-0.9h-1V44.6z"/>
<path class="st0" d="M2.6,60.1V49.3h1.9v8.9h4.7v1.9H2.6z"/>
<path class="st0" d="M10.5,60.1V49.3h6.9v1.8h-5v2.4h4.7v1.8h-4.7v2.9h5.2v1.9H10.5z"/>
<path class="st0" d="M19.2,60.1V49.3H21l3.8,7.2v-7.2h1.8v10.8h-1.9L21,53v7.1H19.2z"/>
<path class="st0" d="M31.3,51.1c0.8,0,1.3,0,1.5,0.1c0.4,0.1,0.7,0.3,0.9,0.5c0.2,0.3,0.4,0.6,0.5,1.1s0.2,1.1,0.2,1.9
	c0,0.8-0.1,1.4-0.2,1.9c-0.1,0.5-0.3,0.8-0.4,1c-0.2,0.2-0.4,0.4-0.7,0.5s-0.7,0.2-1.3,0.2h-1.4v-7.2H31.3z M28.5,60.1H32
	c0.8,0,1.4-0.1,1.9-0.3c0.5-0.2,0.9-0.5,1.2-0.9s0.6-1,0.8-1.6c0.2-0.7,0.3-1.5,0.3-2.4c0-1-0.1-1.9-0.3-2.6
	c-0.2-0.7-0.5-1.3-0.9-1.7s-0.8-0.8-1.2-0.9c-0.4-0.2-1.1-0.3-2-0.3h-3.4v10.7H28.5z"/>
<path class="st0" d="M38,60.1V49.3h6.9v1.8h-5v2.4h4.7v1.8h-4.7v2.9h5.2v1.9H38z"/>
<path class="st0" d="M48.5,51.1H50c0.8,0,1.4,0,1.5,0.1c0.2,0.1,0.4,0.2,0.6,0.4c0.1,0.2,0.2,0.5,0.2,0.8c0,0.4-0.1,0.6-0.2,0.9
	c-0.1,0.2-0.3,0.4-0.6,0.4c-0.2,0.1-0.8,0.1-1.6,0.1h-1.4V51.1z M48.5,60.1v-4.5h0.4c0.4,0,0.8,0,0.9,0.1c0.2,0.1,0.4,0.2,0.6,0.4
	c0.2,0.2,0.5,0.7,1,1.6l1.4,2.4H55L53.9,58c-0.5-0.9-0.8-1.4-1.1-1.8c-0.3-0.3-0.6-0.6-1-0.9c0.8-0.1,1.4-0.5,1.8-1
	c0.4-0.5,0.6-1.2,0.6-2c0-0.7-0.1-1.2-0.4-1.7c-0.3-0.5-0.6-0.8-1.1-1c-0.4-0.2-1.2-0.3-2.2-0.3h-4v10.8H48.5z"/>
<rect x="19.3" y="24.5" class="st0" width="18.4" height="4.4"/>
<rect x="19.3" y="17.6" class="st0" width="18.4" height="4.4"/>
</svg>
