<?xml version="1.0" encoding="utf-8"?>
<!-- Generator: Adobe Illustrator 22.1.0, SVG Export Plug-In . SVG Version: 6.00 Build 0)  -->
<svg version="1.1" id="Layer_1" xmlns="http://www.w3.org/2000/svg" xmlns:xlink="http://www.w3.org/1999/xlink" x="0px" y="0px"
	 viewBox="0 0 218 49.3" style="enable-background:new 0 0 218 49.3;" xml:space="preserve">
<style type="text/css">
	.st0{fill:#006937;}
</style>
<g>
	<path class="st0" d="M22.9,14v4.5H23c0.9-2.6,2.5-5,5.6-5l1.1,0.1v2.8h-0.6c-2.3,0-3.9,1.1-4.9,3c-0.8,1.4-0.9,2.6-0.9,4.1v9.7
		h-2.9V14H22.9z"/>
	<path class="st0" d="M43.9,28.4c0.8-1.5,0.9-3.2,0.9-4.9c0-1.8-0.2-3.7-1.2-5.3c-0.9-1.4-2.5-2.3-4.2-2.3c-1.9,0-3.5,1.1-4.3,2.7
		c-0.7,1.4-0.9,3.2-0.9,4.8c0,1.7,0.3,3.7,1.1,5.3c0.8,1.5,2.5,2.4,4.2,2.4C41.4,31.2,43,30.1,43.9,28.4 M30.9,23.5
		c0-5.3,3-9.9,8.8-9.9c5.6,0,8.4,4.9,8.4,10c0,5.4-3.1,10.1-8.9,10.1C33.4,33.6,30.9,28.6,30.9,23.5"/>
	<polygon class="st0" points="67.9,33.2 65.5,33.2 61.2,19 57.3,33.2 54.9,33.2 49.1,14 52.1,14 56.3,28.4 60.3,14 62.4,14 
		66.7,28.4 71,14 73.5,14 	"/>
	<path class="st0" d="M91.6,16.4h-4.5v16.9h-2.9V16.4h-3.4v-2.3h3.4c-0.2-4,1.2-7.6,5.9-7.1l2.6,0.3v2.4c-0.8-0.2-1.6-0.3-2.4-0.3
		c-3.2,0-3.2,2.3-3.2,4.8h4.5V16.4z"/>
	<path class="st0" d="M95.6,14h2.9v19.2h-2.9V14z M95.4,7.3h3.2v3.3h-3.2V7.3z"/>
	<path class="st0" d="M105.8,17.6L105.8,17.6c1.2-2.4,3.3-4,6-4c2.3,0,4.2,1,5.4,3c1,1.6,0.9,4.2,0.9,6.1v10.6h-2.9V21.4
		c0-1.1,0-2.6-0.5-3.6c-0.6-1.1-2-1.7-3.3-1.7c-1.5,0-2.9,0.7-4,1.9c-1.2,1.5-1.5,3.2-1.5,5.2v10.1h-3V14h2.8v3.6H105.8z"/>
	<path class="st0" d="M135.1,23.6h-2.5c-3,0-7.8,0.4-7.8,4.4c0,2.4,2,3.4,4.2,3.4c3.6,0,6.1-3.1,6.1-6.5V23.6z M135.1,21.3v-0.8
		c0-3.4-1.5-4.6-4.9-4.6c-2.4,0-4.7,0.8-5.3,3.4l-2.8-0.5c0.5-4,4.8-5.3,8.3-5.3c2.1,0,4.5,0.2,5.9,1.9c1.6,1.7,1.6,4.1,1.6,6.3v7.4
		c0,1.4,0,2.8,0.4,4h-2.9l-0.3-3.6c-1.4,2.8-3.7,4-6.7,4c-3.6,0-6.7-2-6.7-5.8c0-2.3,1.4-4.4,3.6-5.3c2.2-1,5-1.1,7.4-1.1
		C132.7,21.3,135.1,21.3,135.1,21.3z"/>
	<path class="st0" d="M145,17.6L145,17.6c1.2-2.4,3.3-4,6-4c2.3,0,4.2,1,5.4,3c1,1.6,0.9,4.2,0.9,6.1v10.6h-3V21.4
		c0-1.1,0-2.6-0.5-3.6c-0.6-1.1-2-1.7-3.3-1.7c-1.6,0-2.9,0.7-4,1.9c-1.2,1.5-1.5,3.2-1.5,5.2v10.1h-2.9V14h2.8v3.6H145z"/>
	<path class="st0" d="M176.1,26.9c-0.7,3.9-3.3,6.7-7.4,6.7c-5.7,0-8.2-5-8.2-10s2.5-10.1,8.2-10.1c4.2,0,6.7,2.7,7.4,6.7l-2.7,0.5
		c-0.3-2.5-1.8-4.6-4.6-4.6c-4,0-5.1,4.2-5.1,7.4c0,3.1,0.9,7.6,5,7.6c2.9,0,4.3-2.1,4.8-4.7L176.1,26.9z"/>
	<path class="st0" d="M179.6,14h2.9v19.2h-2.9V14z M179.5,7.3h3.2v3.3h-3.2V7.3z"/>
	<path class="st0" d="M199.1,23.6h-2.5c-3,0-7.8,0.4-7.8,4.4c0,2.4,2,3.4,4.2,3.4c3.6,0,6.1-3.1,6.1-6.5V23.6z M199.1,21.3v-0.8
		c0-3.4-1.5-4.6-4.9-4.6c-2.4,0-4.7,0.8-5.3,3.4l-2.8-0.5c0.5-4,4.8-5.3,8.3-5.3c2.1,0,4.5,0.2,5.9,1.9c1.6,1.7,1.6,4.1,1.6,6.3v7.4
		c0,1.4,0,2.8,0.4,4h-2.9l-0.3-3.6c-1.4,2.8-3.7,4-6.7,4c-3.6,0-6.7-2-6.7-5.8c0-2.3,1.4-4.4,3.6-5.3c2.2-1,5-1.1,7.4-1.1
		C196.7,21.3,199.1,21.3,199.1,21.3z"/>
	<rect x="206.3" y="7.3" class="st0" width="2.9" height="25.9"/>
	<path class="st0" d="M87.2,42.2h-1.9v7.1h-1.2v-7.1h-1.4v-1h1.4c-0.1-1.7,0.5-3.2,2.5-3l1.1,0.1v1c-0.3-0.1-0.7-0.1-1-0.1
		c-1.4,0-1.3,1-1.3,2h1.9L87.2,42.2L87.2,42.2z"/>
	<path class="st0" d="M93.8,44.4c0-1.3-0.7-2.5-2.2-2.5c-1.3,0-2.2,1.2-2.3,2.5H93.8z M95,47.1c-0.5,1.5-1.9,2.4-3.4,2.4
		c-2.4,0-3.7-1.9-3.7-4.2c0-2.2,1.3-4.2,3.7-4.2c2.5,0,3.6,2.1,3.5,4.3h-5.9c0,0.6,0,1.2,0.3,1.8c0.4,0.8,1.2,1.2,2.1,1.2
		c1,0,1.8-0.6,2.2-1.6L95,47.1z"/>
	<path class="st0" d="M101.8,44.5c0-0.6-0.1-1.1-0.4-1.6c-0.4-0.6-1.1-0.9-1.8-0.9c-0.7,0-1.3,0.4-1.6,1c-0.4,0.6-0.5,1.4-0.5,2.1
		c0,1.3,0.4,3.3,2.1,3.3c0.7,0,1.4-0.4,1.8-1c0.4-0.5,0.5-1,0.5-1.7L101.8,44.5L101.8,44.5z M101.8,38.4h1.2v10.9h-1.1v-1.4l0,0
		c-0.5,1-1.3,1.6-2.5,1.6c-1.1,0-1.9-0.5-2.5-1.4c-0.6-0.8-0.8-1.8-0.8-2.8c0-2,1-4.2,3.3-4.2c1,0,1.8,0.5,2.3,1.3L101.8,38.4
		L101.8,38.4z"/>
	<path class="st0" d="M110.6,44.4c0-1.3-0.7-2.5-2.2-2.5c-1.3,0-2.2,1.2-2.3,2.5H110.6z M111.8,47.1c-0.5,1.5-1.9,2.4-3.4,2.4
		c-2.4,0-3.7-1.9-3.7-4.2c0-2.2,1.3-4.2,3.7-4.2c2.5,0,3.6,2.1,3.5,4.3H106c0,0.6,0,1.2,0.3,1.8c0.4,0.8,1.2,1.2,2.1,1.2
		c1,0,1.8-0.6,2.2-1.6L111.8,47.1z"/>
	<path class="st0" d="M114.6,41.2v1.9l0,0C115,42,115.7,41,117,41h0.5v1.2h-0.3c-1,0-1.6,0.5-2.1,1.3c-0.3,0.6-0.4,1.1-0.4,1.7v4.1
		h-1.2v-8.1C113.5,41.2,114.6,41.2,114.6,41.2z"/>
	<path class="st0" d="M123.5,45.2h-1c-1.3,0-3.3,0.2-3.3,1.8c0,1,0.9,1.4,1.7,1.4c1.5,0,2.6-1.3,2.6-2.7V45.2z M123.5,44.3V44
		c0-1.4-0.6-2-2-2c-1,0-2,0.3-2.2,1.4l-1.2-0.2c0.2-1.7,2-2.2,3.5-2.2c0.9,0,1.9,0.1,2.5,0.8c0.7,0.7,0.7,1.7,0.7,2.7v3.1
		c0,0.6,0,1.2,0.2,1.7h-1.2l-0.1-1.5c-0.6,1.2-1.5,1.7-2.8,1.7c-1.5,0-2.8-0.8-2.8-2.4c0-1,0.6-1.8,1.5-2.2s2.1-0.5,3.1-0.5
		L123.5,44.3L123.5,44.3z"/>
	<rect x="126.5" y="38.4" class="st0" width="1.2" height="10.9"/>
	<path class="st0" d="M139.1,46.6c-0.3,1.6-1.4,2.8-3.1,2.8c-2.4,0-3.4-2.1-3.4-4.2c0-2.1,1-4.2,3.4-4.2c1.7,0,2.8,1.1,3.1,2.8
		L138,44c-0.1-1.1-0.8-2-1.9-2c-1.7,0-2.2,1.8-2.2,3.1s0.4,3.2,2.1,3.2c1.2,0,1.8-0.9,2-2L139.1,46.6z"/>
	<path class="st0" d="M141.9,41.2v1.9l0,0c0.4-1.1,1.1-2.1,2.4-2.1h0.5v1.2h-0.3c-1,0-1.6,0.5-2.1,1.3c-0.3,0.6-0.4,1.1-0.4,1.7v4.1
		h-1.2v-8.1C140.8,41.2,141.9,41.2,141.9,41.2z"/>
	<path class="st0" d="M151.1,44.4c0-1.3-0.7-2.5-2.2-2.5c-1.3,0-2.2,1.2-2.3,2.5H151.1z M152.3,47.1c-0.5,1.5-1.9,2.4-3.4,2.4
		c-2.4,0-3.7-1.9-3.7-4.2c0-2.2,1.3-4.2,3.7-4.2c2.5,0,3.6,2.1,3.5,4.3h-5.9c0,0.6,0,1.2,0.3,1.8c0.4,0.8,1.2,1.2,2.1,1.2
		c1,0,1.8-0.6,2.2-1.6L152.3,47.1z"/>
	<path class="st0" d="M159.5,44.5c0-0.6-0.1-1.1-0.4-1.6c-0.4-0.6-1.1-0.9-1.8-0.9s-1.3,0.4-1.6,1c-0.4,0.6-0.5,1.4-0.5,2.1
		c0,1.3,0.3,3.3,2.1,3.3c0.7,0,1.4-0.4,1.8-1c0.4-0.5,0.5-1,0.5-1.7v-1.2H159.5z M159.5,38.4h1.2v10.9h-1.1v-1.4l0,0
		c-0.5,1-1.3,1.6-2.5,1.6c-1.1,0-1.9-0.5-2.5-1.4c-0.6-0.8-0.8-1.8-0.8-2.8c0-2,1-4.2,3.3-4.2c1,0,1.8,0.5,2.3,1.3v-4H159.5z"/>
	<path class="st0" d="M162.7,41.2h1.2v8.1h-1.2V41.2z M162.6,38.4h1.4v1.4h-1.4V38.4z"/>
	<path class="st0" d="M170.2,49.4l-1.2,0.1c-1.8,0-2.3-1-2.3-2.6v-4.7h-1.4v-1h1.4v-2l1.2-0.1v2.1h1.8v1h-1.8v4.9
		c0,0.9,0.3,1.4,1.3,1.4l1-0.1V49.4z"/>
	<path class="st0" d="M179.6,49.3v-1.6l0,0c-0.4,1-1.4,1.8-2.5,1.8c-0.8,0-1.6-0.3-2.1-0.9c-0.5-0.7-0.6-1.6-0.6-2.4v-4.9h1.2v4.9
		c0,0.5,0,1.1,0.3,1.5c0.2,0.4,0.8,0.8,1.3,0.8c0.7,0,1.2-0.3,1.7-0.8c0.5-0.6,0.6-1.3,0.6-2v-4.3h1.2v8.1h-1.1V49.3z"/>
	<path class="st0" d="M184.2,42.7L184.2,42.7c0.5-1,1.4-1.7,2.5-1.7c1,0,1.8,0.4,2.3,1.3c0.4,0.7,0.4,1.8,0.4,2.6v4.5h-1.2v-5
		c0-0.5,0-1.1-0.2-1.5c-0.3-0.5-0.9-0.7-1.4-0.7c-0.6,0-1.2,0.3-1.7,0.8c-0.5,0.6-0.6,1.4-0.6,2.2v4.2h-1.2v-8.1h1.2v1.4H184.2z"/>
	<path class="st0" d="M191.4,41.2h1.2v8.1h-1.2V41.2z M191.3,38.4h1.4v1.4h-1.4V38.4z"/>
	<path class="st0" d="M199.7,47.3c0.3-0.6,0.4-1.4,0.4-2.1c0-0.8-0.1-1.6-0.5-2.2c-0.4-0.6-1-1-1.7-1c-0.8,0-1.5,0.4-1.8,1.1
		c-0.3,0.6-0.4,1.4-0.4,2c0,0.7,0.1,1.6,0.5,2.2c0.3,0.6,1,1,1.8,1C198.6,48.4,199.3,48,199.7,47.3 M194.2,45.2
		c0-2.2,1.3-4.2,3.7-4.2s3.5,2.1,3.5,4.2c0,2.3-1.3,4.2-3.7,4.2C195.3,49.5,194.2,47.3,194.2,45.2"/>
	<path class="st0" d="M204.1,42.7L204.1,42.7c0.5-1,1.4-1.7,2.5-1.7c1,0,1.8,0.4,2.3,1.3c0.4,0.7,0.4,1.8,0.4,2.6v4.5h-1.2v-5
		c0-0.5,0-1.1-0.2-1.5c-0.3-0.5-0.9-0.7-1.4-0.7c-0.6,0-1.2,0.3-1.7,0.8c-0.5,0.6-0.6,1.4-0.6,2.2v4.2H203v-8.1h1.2v1.4H204.1z"/>
	<path class="st0" d="M21.3,3.5c-4,2.6-5.5,5.8-5.9,6.5c0,0,0.7-4.5,4.8-6.8c3.9-2.1,7.3-1.6,7.3-1.6S24.2,1.6,21.3,3.5 M8.5,24.4
		c-2.6,0-4.3-1.6-4.3-4.2C4.2,17.7,6,16,8.5,16c2.3,0,4.3,1.8,4.3,4.2C12.8,22.7,11.1,24.4,8.5,24.4 M4.9,32.5l4.6,0.3h1.9
		c1.5,0,4.1,0.3,4.1,2.3c0,1.2-0.6,1.8-1.7,2.3c-1.3,0.6-3.5,0.8-5,0.8c-2,0-6-0.5-6-3.1C2.8,33.7,3.8,33,4.9,32.5 M14.2,10.8
		c0,0-0.3,0.2-1,1.1c-0.4,0.5-1.2,1.6-1.7,2.2c-1-0.3-2-0.5-3-0.5c-3.9,0-7.4,2.4-7.4,6.5c0,2.1,0.9,3.8,2.5,5.1
		C2,25.9,1,26.8,1,28.6c0,1.4,0.8,2.3,1.9,3C1.1,32.2,0,33.5,0,35.5c0,2.1,1.4,3.5,3.3,4.2c1.7,0.6,3.9,0.8,5.6,0.8
		c3.7,0,9.5-0.6,9.5-5.5c0-1.9-1.2-3.6-2.9-4.2c-1.5-0.6-4-0.6-5.6-0.7c-1.4,0-3.2,0-4.5-0.3c-1-0.3-1.6-0.7-1.6-1.7s1.1-1.8,2-1.8
		c0.3,0,0.9,0.2,1.2,0.2c0.5,0.1,0.9,0.1,1.4,0.1c1.7,0,3.5-0.4,4.9-1.5s2.5-2.9,2.5-4.8c0-1.7-0.7-3.4-1.9-4.7l0,0
		c-0.2-0.2-0.4-0.4-0.6-0.6c0.2-0.5,0.6-1.5,1.2-2.5c0.7-1.1,1.1-1.2,1.1-1.2c2.8,0.3,7.6-1.1,9.6-5s6.9-5.2,6.9-5.2
		C12.4-3.8,13.1,8.9,14.2,10.8"/>
	<path class="st0" d="M215.3,9.4h0.5c0.5,0,0.7-0.1,0.7-0.4s-0.1-0.4-0.6-0.4h-0.5L215.3,9.4L215.3,9.4z M215.3,10.9h-0.4V8.3h1
		c0.6,0,0.9,0.2,0.9,0.8c0,0.5-0.3,0.7-0.7,0.7l0.8,1.2h-0.4l-0.7-1.1h-0.5L215.3,10.9L215.3,10.9z M215.7,7.7
		c-1.1,0-1.9,0.8-1.9,1.9s0.8,1.9,1.9,1.9c1,0,1.9-0.8,1.9-1.9C217.6,8.5,216.8,7.7,215.7,7.7 M215.7,7.3c1.2,0,2.3,1,2.3,2.3
		c0,1.3-1.1,2.3-2.3,2.3c-1.3,0-2.3-1-2.3-2.3C213.4,8.3,214.5,7.3,215.7,7.3"/>
</g>
</svg>
